<svg width="428" height="117" viewBox="0 0 428 117" fill="none" xmlns="http://www.w3.org/2000/svg">
    <g filter="url(#filter0_b_573_1630)">
        <mask id="path-1-inside-1_573_1630" fill="white">
            <path fill-rule="evenodd" clip-rule="evenodd"
                d="M148.285 36.8322C157.679 36.8322 165.459 29.9376 170.714 22.152C179.674 8.87935 195.997 0 214.648 0C233.299 0 249.622 8.87935 258.582 22.152C263.838 29.9376 271.618 36.8322 281.012 36.8322H387.916C410.054 36.8322 428 54.7784 428 76.9161C428 99.0538 410.054 117 387.916 117H40.0839C17.9462 117 0 99.0538 0 76.9161C0 54.7784 17.9462 36.8322 40.0839 36.8322H148.285Z" />
        </mask>
        <path fill-rule="evenodd" clip-rule="evenodd"
            d="M148.285 36.8322C157.679 36.8322 165.459 29.9376 170.714 22.152C179.674 8.87935 195.997 0 214.648 0C233.299 0 249.622 8.87935 258.582 22.152C263.838 29.9376 271.618 36.8322 281.012 36.8322H387.916C410.054 36.8322 428 54.7784 428 76.9161C428 99.0538 410.054 117 387.916 117H40.0839C17.9462 117 0 99.0538 0 76.9161C0 54.7784 17.9462 36.8322 40.0839 36.8322H148.285Z"
            fill="#292929" fill-opacity="0.35" />
        <path
            d="M258.582 22.152L259.411 21.5925L258.582 22.152ZM171.543 22.7115C180.306 9.73028 196.31 1 214.648 1V-1C195.685 -1 179.042 8.02843 169.886 21.5925L171.543 22.7115ZM214.648 1C232.987 1 248.99 9.73028 257.753 22.7115L259.411 21.5925C250.254 8.02843 233.612 -1 214.648 -1V1ZM281.012 37.8322H387.916V35.8322H281.012V37.8322ZM387.916 37.8322C409.502 37.8322 427 55.3307 427 76.9161H429C429 54.2261 410.606 35.8322 387.916 35.8322V37.8322ZM427 76.9161C427 98.5015 409.502 116 387.916 116V118C410.606 118 429 99.6061 429 76.9161H427ZM387.916 116H40.0839V118H387.916V116ZM40.0839 116C18.4985 116 1 98.5015 1 76.9161H-1C-1 99.6061 17.3939 118 40.0839 118V116ZM1 76.9161C1 55.3307 18.4985 37.8322 40.0839 37.8322V35.8322C17.3939 35.8322 -1 54.2261 -1 76.9161H1ZM40.0839 37.8322H148.285V35.8322H40.0839V37.8322ZM257.753 22.7115C263.07 30.5878 271.112 37.8322 281.012 37.8322V35.8322C272.124 35.8322 264.605 29.2873 259.411 21.5925L257.753 22.7115ZM169.886 21.5925C164.691 29.2873 157.173 35.8322 148.285 35.8322V37.8322C158.185 37.8322 166.226 30.5878 171.543 22.7115L169.886 21.5925Z"
            fill="url(#paint0_linear_573_1630)" fill-opacity="0.7"
            mask="url(#path-1-inside-1_573_1630)" />
    </g>
    <defs>
        <filter id="filter0_b_573_1630" x="-94" y="-94" width="616" height="305"
            filterUnits="userSpaceOnUse" color-interpolation-filters="sRGB">
            <feFlood flood-opacity="0" result="BackgroundImageFix" />
            <feGaussianBlur in="BackgroundImageFix" stdDeviation="47" />
            <feComposite in2="SourceAlpha" operator="in" result="effect1_backgroundBlur_573_1630" />
            <feBlend mode="normal" in="SourceGraphic" in2="effect1_backgroundBlur_573_1630"
                result="shape" />
        </filter>
        <linearGradient id="paint0_linear_573_1630" x1="214" y1="-22.5319" x2="214" y2="56.6185"
            gradientUnits="userSpaceOnUse">
            <stop stop-color="white" />
            <stop offset="0.815356" stop-color="white" stop-opacity="0" />
        </linearGradient>
    </defs>
</svg>
    
