<svg width="95" height="199" viewBox="0 0 95 199" fill="none" xmlns="http://www.w3.org/2000/svg">
    <path
        d="M46.4593 55.2203C34.6975 47.3774 8.93899 25.3533 -3.05176e-05 0L-3.05176e-05 218C2.54837 209.517 15.408 185.924 46.4593 159.418C49.2038 156.858 60.1031 148.182 81.7449 133.969C95.523 121.373 96.5227 109 93.7649 97.2162C91.4207 87.2 85.0383 76.7322 46.4593 55.2203Z"
        fill="#232323" />
    <g clip-path="url(#clip0_251_7130)">
        <path
            d="M46.5104 97.834L48.836 100.172L41.2821 107.783H67.9514V111.1H41.2821L48.8525 118.711L46.5104 121.049L34.9653 109.441L46.5104 97.834Z"
            fill="#DDDDDD" />
    </g>
    <defs>
        <clipPath id="clip0_251_7130">
            <rect width="39.5833" height="39.7967" fill="white"
                transform="matrix(-1 0 0 1 71.2504 89.543)" />
        </clipPath>
    </defs>
</svg>
    