<svg width="40" height="31" viewBox="0 0 40 31" fill="none" xmlns="http://www.w3.org/2000/svg">
<path d="M35.8335 14.2817C36.2925 14.2817 36.932 14.014 37.256 13.6874L40 10.9216L35 10.0813V8.40125H39.8765C39.686 7.64515 39.2885 6.8442 38.822 6.3734L32.5 0H30.8335L32.5 5.04065H25C24.0835 5.04065 22.8025 5.57546 22.155 6.22873L20 8.40125H15L1.849 5.6052L0 8.40125L5 11.7619H0V14.2822H8.75L13.6135 17.5505C14.3755 18.0622 15 19.2386 15 20.1626V21.8426L13.1495 22.012C12.4675 19.0305 9.831 16.802 6.667 16.802C2.9835 16.802 0 19.8118 0 23.5232C0 27.2346 2.9835 30.2439 6.6665 30.2439C9.7685 30.2439 12.3535 28.0961 13.097 25.2033H24.3245C24.225 24.6584 24.1665 24.0973 24.1665 23.5232C24.1665 21.4263 24.868 19.4982 26.035 17.9462L27.8205 19.7457C27.093 20.8224 26.666 22.1219 26.666 23.5232C26.6665 27.2346 29.65 30.2439 33.3335 30.2439C37.015 30.2439 40 27.2346 40 23.5232C40 19.8118 37.015 16.802 33.3335 16.802C31.945 16.802 30.656 17.2325 29.5885 17.9639L27.803 16.1644C29.341 14.9879 31.2535 14.2822 33.334 14.2822L35.8335 14.2817ZM9.538 25.2033C8.96 26.2038 7.8975 26.8833 6.667 26.8833C4.8245 26.8833 3.3335 25.3792 3.3335 23.5232C3.3335 21.6672 4.824 20.1626 6.6665 20.1626C8.0855 20.1626 9.29 21.0619 9.771 22.322L5.8335 22.6829V25.2033H9.538ZM30.265 22.2106L33.0405 25.0082L34.808 23.2263L32.0325 20.4287C32.4315 20.2574 32.871 20.1626 33.3335 20.1626C35.1745 20.1626 36.6665 21.6672 36.6665 23.5232C36.6665 25.3792 35.1745 26.8833 33.3335 26.8833C31.4905 26.8833 30 25.3792 30 23.5232C30 23.0569 30.094 22.6139 30.265 22.2106Z" fill="url(#paint0_linear_536_3897)"/>
<defs>
<linearGradient id="paint0_linear_536_3897" x1="20" y1="0" x2="20" y2="30.2439" gradientUnits="userSpaceOnUse">
<stop stop-color="#DCDCDC"/>
<stop offset="1" stop-color="#DCDCDC" stop-opacity="0"/>
</linearGradient>
</defs>
</svg>
