<svg width="20" height="20" viewBox="0 0 20 20" fill="none" xmlns="http://www.w3.org/2000/svg">
<path d="M19.7583 0H14.2166L10.5223 6.69924C12.2007 6.8512 13.7114 7.58919 14.8474 8.70885L19.7583 0Z" fill="white"/>
<path d="M9.23246 6.69945L5.54166 0H0L4.91102 8.70903C6.04617 7.59008 7.55549 6.85216 9.23246 6.69945Z" fill="white"/>
<path d="M9.87915 7.5C6.43333 7.5 3.62915 10.3042 3.62915 13.75C3.62915 17.1958 6.43333 20 9.87915 20C13.325 20 16.1292 17.1958 16.1292 13.75C16.1292 10.3042 13.325 7.5 9.87915 7.5ZM12.4625 14.5708L13.0583 18.05L9.93332 16.4083L6.81249 18.05L7.40832 14.5708L4.87915 12.1083L8.37499 11.6L9.93332 8.43333L11.4958 11.6L14.9917 12.1083L12.4625 14.5708Z" fill="white"/>
</svg>
