<svg width="21" height="30" viewBox="0 0 21 30" fill="none" xmlns="http://www.w3.org/2000/svg">
<path d="M21 10.5741C21 4.7342 16.299 0 10.5 0C4.701 0 0 4.7342 0 10.5741C0 14.6084 2.24399 18.114 5.54298 19.8967C4.44534 22.2938 2.56745 25.0316 1.06686 26.6871C1.06686 26.6871 1.28677 26.6479 1.68473 26.5712C3.66439 24.1074 4.98855 21.8669 5.79493 20.0266C5.95866 20.1094 6.12458 20.1884 6.29306 20.2627C5.45231 22.1676 4.15127 24.2886 2.50862 26.4083C3.10375 26.2879 3.86062 26.1296 4.74599 25.9328C4.74599 25.9328 5.27029 26.9889 5.87888 28.4366C7.56519 25.9984 8.8059 23.5468 9.59958 21.1069C9.78651 21.1229 9.97482 21.1337 10.1644 21.1397C10.1653 21.1424 10.166 21.1451 10.1668 21.1478C9.32771 23.7785 7.97742 26.419 6.12755 29.0396C6.18586 29.1837 6.24438 29.3301 6.30276 29.479C6.30276 29.479 8.8524 26.2059 10.4188 21.908C12.0097 26.4748 14.7536 30 14.7536 30C14.8123 29.8503 14.8712 29.703 14.9298 29.5579C12.9572 26.7639 11.5361 23.9475 10.6854 21.1435C10.8821 21.14 11.0774 21.131 11.2713 21.1168C12.0786 23.7201 13.3842 26.3374 15.1846 28.94C15.8097 27.4529 16.3488 26.3669 16.3488 26.3669C17.2502 26.5673 18.0218 26.7288 18.6299 26.8518C16.8712 24.5813 15.4959 22.3102 14.6423 20.2921C14.8148 20.2174 14.9845 20.1375 15.1521 20.054C15.9637 21.9853 17.353 24.378 19.4736 27.0186C19.8885 27.0986 20.1183 27.1396 20.1183 27.1396C18.5255 25.3822 16.5179 22.4351 15.4142 19.9188C18.7364 18.1432 21 14.6256 21 10.5741ZM10.5 19.169C5.78642 19.169 1.96531 15.3209 1.96531 10.5741C1.96531 5.82727 5.78642 1.97917 10.5 1.97917C15.2136 1.97917 19.0347 5.82727 19.0347 10.5741C19.0347 15.3209 15.2136 19.169 10.5 19.169Z" fill="#B27E68"/>
<path d="M10.5 18.1752C14.7024 18.1752 18.1091 14.7444 18.1091 10.5124C18.1091 6.28036 14.7024 2.84961 10.5 2.84961C6.29758 2.84961 2.89087 6.28036 2.89087 10.5124C2.89087 14.7444 6.29758 18.1752 10.5 18.1752Z" fill="#B27E68"/>
</svg>
