<svg width="24" height="21" viewBox="0 0 24 21" fill="none" xmlns="http://www.w3.org/2000/svg">
<path d="M23.01 6.54004V18.87C23.01 19.02 22.95 19.14 22.8 19.23C22.74 19.26 22.65 19.29 22.59 19.29C22.53 19.29 22.47 19.29 22.41 19.26C19.65 17.88 15.24 17.85 12.42 19.17V20.13H24V6.54004H23.01Z" fill="white"/>
<path d="M22.2 18.24V5.13C21.48 4.8 20.61 4.56 19.68 4.38V13.11C19.68 13.23 19.62 13.35 19.53 13.44L14.1 17.73C16.71 17.13 19.86 17.28 22.2 18.24Z" fill="white"/>
<path d="M18.84 0L12.42 5.07V18.03L18.84 12.93V0Z" fill="white"/>
<path d="M1.80005 5.13006V6.09006V6.12006V18.2101C3.21005 17.6401 4.95005 17.3401 6.69005 17.3401C8.43005 17.3401 10.17 17.6401 11.58 18.2101V5.13006C8.82005 3.87006 4.56005 3.87006 1.80005 5.13006Z" fill="white"/>
<path d="M1.59 19.23C1.47 19.29 1.32 19.29 1.2 19.2C1.08 19.14 0.99 18.99 0.99 18.84V6.54004H0V20.1H11.58V19.14C8.76 17.82 4.35 17.85 1.59 19.23Z" fill="white"/>
</svg>
