<svg width="26" height="20" viewBox="0 0 26 20" fill="none" xmlns="http://www.w3.org/2000/svg">
<path d="M7.83222 11.2694C10.9442 11.2694 13.4669 8.74667 13.4669 5.63471C13.4669 2.52274 10.9442 0 7.83222 0C4.72025 0 2.19751 2.52274 2.19751 5.63471C2.19751 8.74667 4.72025 11.2694 7.83222 11.2694Z" fill="#B61A15"/>
<path d="M15.6647 19.9997V15.2034C15.6647 13.0284 14.0996 11.22 12.0342 10.8397C11.0023 11.9942 9.50249 12.7215 7.8322 12.7215C6.16191 12.7215 4.66215 11.9942 3.63019 10.8397C1.56513 11.2197 0 13.0281 0 15.2034V20L15.6647 19.9997Z" fill="#B61A15"/>
<path d="M19.8223 11.9362C22.1095 11.9362 23.9635 10.0821 23.9635 7.795C23.9635 5.50789 22.1095 3.65381 19.8223 3.65381C17.5352 3.65381 15.6812 5.50789 15.6812 7.795C15.6812 10.0821 17.5352 11.9362 19.8223 11.9362Z" fill="#B61A15"/>
<path d="M22.9106 11.6204C22.1524 12.4687 21.0499 13.0033 19.8224 13.0033C18.5949 13.0033 17.4928 12.4687 16.7342 11.6204C16.4617 11.6704 16.2013 11.7551 15.9569 11.8685C16.6305 12.6464 17.0386 13.6601 17.0386 14.77V18.3524H25.5788V14.8274C25.5788 13.2287 24.4286 11.8997 22.9106 11.6204Z" fill="#B61A15"/>
</svg>
