<svg width="24" height="21" viewBox="0 0 24 21" fill="none" xmlns="http://www.w3.org/2000/svg">
<path d="M1.63636 0.5C0.89892 0.5 0.269439 1.00833 0.0681821 1.69683L11.5344 11.852C11.8043 12.091 12.1957 12.091 12.4656 11.852L23.9318 1.69683C23.7306 1.00833 23.1011 0.5 22.3636 0.5H1.63636ZM0 3.10742V17.8926L8.34588 10.5L0 3.10742ZM24 3.10742L15.6541 10.5L24 17.8926V3.10742ZM9.17791 11.2368L0.0681821 19.3032C0.269438 19.9917 0.89892 20.5 1.63636 20.5H22.3636C23.1011 20.5 23.7306 19.9917 23.9318 19.3032L14.8221 11.2368L13.1815 12.6897C12.5073 13.2868 11.4927 13.2868 10.8185 12.6897L9.17791 11.2368Z" fill="white"/>
</svg>
