<svg width="20" height="16" viewBox="0 0 20 16" fill="none" xmlns="http://www.w3.org/2000/svg">
<path fill-rule="evenodd" clip-rule="evenodd" d="M16 8C16.7481 7.99981 17.4811 7.78984 18.1159 7.39393C18.7506 6.99802 19.2616 6.43205 19.5908 5.76029C19.92 5.08853 20.0543 4.33791 19.9783 3.59369C19.9023 2.84947 19.6191 2.14147 19.1609 1.55011C18.7028 0.958749 18.0879 0.507729 17.3863 0.248275C16.6846 -0.0111786 15.9243 -0.0686666 15.1916 0.08234C14.4589 0.233347 13.7832 0.586796 13.2413 1.10254C12.6994 1.61829 12.313 2.27566 12.126 3H1C0.734785 3 0.480431 3.10536 0.292895 3.29289C0.105359 3.48043 1.95568e-06 3.73478 1.95568e-06 4C1.95568e-06 4.26522 0.105359 4.51957 0.292895 4.70711C0.480431 4.89464 0.734785 5 1 5H12.126C12.57 6.725 14.136 8 16 8ZM14 4C14 4.53043 14.2107 5.03914 14.5858 5.41421C14.9609 5.78929 15.4696 6 16 6C16.5304 6 17.0391 5.78929 17.4142 5.41421C17.7893 5.03914 18 4.53043 18 4C18 3.46957 17.7893 2.96086 17.4142 2.58579C17.0391 2.21071 16.5304 2 16 2C15.4696 2 14.9609 2.21071 14.5858 2.58579C14.2107 2.96086 14 3.46957 14 4ZM1.95568e-06 12C-0.000960956 11.0257 0.353685 10.0846 0.997376 9.35327C1.64107 8.62193 2.52954 8.15067 3.49605 8.02792C4.46255 7.90517 5.44062 8.13939 6.24669 8.68661C7.05276 9.23383 7.6314 10.0564 7.874 11H19C19.2652 11 19.5196 11.1054 19.7071 11.2929C19.8946 11.4804 20 11.7348 20 12C20 12.2652 19.8946 12.5196 19.7071 12.7071C19.5196 12.8946 19.2652 13 19 13H7.874C7.62827 13.9405 7.04864 14.7594 6.24333 15.3038C5.43802 15.8482 4.46209 16.0809 3.49778 15.9584C2.53346 15.836 1.64669 15.3667 1.00303 14.6383C0.359371 13.9099 0.00283796 12.9721 1.95568e-06 12ZM6 12C6 11.4696 5.78929 10.9609 5.41422 10.5858C5.03914 10.2107 4.53043 10 4 10C3.46957 10 2.96086 10.2107 2.58579 10.5858C2.21072 10.9609 2 11.4696 2 12C2 12.5304 2.21072 13.0391 2.58579 13.4142C2.96086 13.7893 3.46957 14 4 14C4.53043 14 5.03914 13.7893 5.41422 13.4142C5.78929 13.0391 6 12.5304 6 12Z" fill="black"/>
</svg>
