<svg width="20" height="20" viewBox="0 0 20 20" fill="none" xmlns="http://www.w3.org/2000/svg">
<path d="M17.9167 14.1667C17.6872 14.1667 17.3675 14.2992 17.2052 14.4612L16.679 14.9877C16.355 15.3117 15.743 15.4337 15.3197 15.258L10.1342 13.1102C9.77774 12.963 9.45649 12.7472 9.18774 12.4787C8.66049 11.9507 8.33324 11.2215 8.33324 10.4167C8.33324 9.26599 9.26574 8.33349 10.4165 8.33349H19.85C19.0552 3.606 14.9535 0 9.99999 0C5.34174 0 1.4395 3.18925 0.328 7.49999H4.99999V9.16674H0.0422499C0.0194999 9.44174 0 9.71849 0 9.99999C0 10.2815 0.0187499 10.5582 0.0422499 10.8332H4.99999V12.5H0.3305C0.447749 12.9532 0.585249 13.3985 0.761749 13.825L1.36725 15.4297C1.69925 16.2322 2.70675 17.0345 3.60525 17.2137L17.5642 19.9837C18.0135 20.0732 18.479 19.7845 18.5987 19.3417L20 14.1667H17.9167ZM6.87499 5.41674C6.29974 5.41674 5.83324 4.95049 5.83324 4.37499C5.83324 3.7995 6.29949 3.33325 6.87499 3.33325C7.45049 3.33325 7.91674 3.7995 7.91674 4.37499C7.91674 4.95049 7.45024 5.41674 6.87499 5.41674Z" fill="white"/>
</svg>
