<svg width="27" height="27" viewBox="0 0 27 27" fill="none" xmlns="http://www.w3.org/2000/svg">
<path d="M24.1876 19.1251C23.8778 19.1251 23.4461 19.304 23.2271 19.5227L22.5166 20.2334C22.0792 20.6708 21.253 20.8355 20.6816 20.5983L13.6812 17.6988C13.1999 17.5 12.7663 17.2088 12.4034 16.8463C11.6917 16.1335 11.2499 15.149 11.2499 14.0626C11.2499 12.5091 12.5087 11.2502 14.0623 11.2502H26.7975C25.7246 4.86809 20.1872 0 13.5 0C7.21135 0 1.94332 4.30548 0.4428 10.125H6.74999V12.3751H0.0570373C0.0263249 12.7463 0 13.12 0 13.5C0 13.88 0.0253124 14.2536 0.0570373 14.6249H6.74999V16.875H0.446174C0.604462 17.4869 0.790087 18.088 1.02836 18.6637L1.84579 20.8301C2.29398 21.9135 3.65411 22.9965 4.86708 23.2385L23.7117 26.978C24.3182 27.0989 24.9466 26.709 25.1083 26.1113L27 19.1251H24.1876ZM9.28124 7.3126C8.50465 7.3126 7.87488 6.68317 7.87488 5.90624C7.87488 5.12932 8.50431 4.49988 9.28124 4.49988C10.0582 4.49988 10.6876 5.12932 10.6876 5.90624C10.6876 6.68317 10.0578 7.3126 9.28124 7.3126Z" fill="white" fill-opacity="0.4"/>
</svg>
