<svg width="27" height="28" viewBox="0 0 27 28" fill="none" xmlns="http://www.w3.org/2000/svg">
<path d="M24.1876 19.2884C23.8778 19.2884 23.4461 19.4672 23.2271 19.6859L22.5166 20.3967C22.0792 20.8341 21.253 20.9988 20.6816 20.7615L13.6812 17.8621C13.1999 17.6633 12.7663 17.372 12.4034 17.0096C11.6917 16.2968 11.2499 15.3123 11.2499 14.2259C11.2499 12.6724 12.5087 11.4135 14.0623 11.4135H26.7975C25.7246 5.03136 20.1872 0.163269 13.5 0.163269C7.21135 0.163269 1.94332 4.46875 0.4428 10.2883H6.74999V12.5384H0.0570373C0.0263249 12.9096 0 13.2832 0 13.6633C0 14.0433 0.0253124 14.4169 0.0570373 14.7881H6.74999V17.0382H0.446174C0.604462 17.6501 0.790087 18.2512 1.02836 18.827L1.84579 20.9934C2.29398 22.0768 3.65411 23.1598 4.86708 23.4018L23.7117 27.1413C24.3182 27.2621 24.9466 26.8723 25.1083 26.2746L27 19.2884H24.1876ZM9.28124 7.47587C8.50465 7.47587 7.87488 6.84644 7.87488 6.06951C7.87488 5.29259 8.50431 4.66315 9.28124 4.66315C10.0582 4.66315 10.6876 5.29259 10.6876 6.06951C10.6876 6.84644 10.0578 7.47587 9.28124 7.47587Z" fill="#B61A15"/>
</svg>
