<svg width="25" height="27" viewBox="0 0 25 27" fill="none" xmlns="http://www.w3.org/2000/svg">
<path d="M25 25.1349V11.0825C25 10.5417 24.7652 10.0276 24.3565 9.67333L13.7222 0.455917C13.0209 -0.151972 11.9791 -0.151972 11.2778 0.455914L0.643487 9.67333C0.23477 10.0276 0 10.5417 0 11.0825V25.1349C0 26.165 0.835296 27 1.86566 27H7.03658C8.06697 27 8.90224 26.165 8.90224 25.1349V18.3316C8.90224 17.3015 9.73753 16.4664 10.7679 16.4664H14.2321C15.2625 16.4664 16.0978 17.3015 16.0978 18.3316V25.1349C16.0978 26.165 16.933 27 17.9634 27H23.1343C24.1647 27 25 26.165 25 25.1349Z" fill="white" fill-opacity="0.4"/>
</svg>
