<svg width="25" height="28" viewBox="0 0 25 28" fill="none" xmlns="http://www.w3.org/2000/svg">
<path d="M25 25.2165V11.1641C25 10.6234 24.7652 10.1092 24.3565 9.75496L13.7222 0.537552C13.0209 -0.0703372 11.9791 -0.0703374 11.2778 0.537548L0.643487 9.75496C0.23477 10.1092 0 10.6234 0 11.1641V25.2165C0 26.2466 0.835296 27.0816 1.86566 27.0816H7.03658C8.06697 27.0816 8.90224 26.2466 8.90224 25.2165V18.4132C8.90224 17.3831 9.73753 16.5481 10.7679 16.5481H14.2321C15.2625 16.5481 16.0978 17.3831 16.0978 18.4132V25.2165C16.0978 26.2466 16.933 27.0816 17.9634 27.0816H23.1343C24.1647 27.0816 25 26.2466 25 25.2165Z" fill="#B61A15"/>
</svg>
