<svg width="19" height="20" viewBox="0 0 19 20" fill="none" xmlns="http://www.w3.org/2000/svg">
<path d="M18.1818 18.6185V8.20926C18.1818 7.80869 18.0111 7.42783 17.7138 7.16543L9.97976 0.337716C9.46971 -0.112572 8.7121 -0.112572 8.20206 0.337714L0.46799 7.16543C0.170742 7.42783 0 7.80869 0 8.20926V18.6185C0 19.3815 0.607488 20 1.35684 20H5.11751C5.86689 20 6.47435 19.3815 6.47435 18.6185V13.5789C6.47435 12.8159 7.08184 12.1974 7.83122 12.1974H10.3506C11.1 12.1974 11.7075 12.8159 11.7075 13.5789V18.6185C11.7075 19.3815 12.3149 20 13.0643 20H16.825C17.5743 20 18.1818 19.3815 18.1818 18.6185Z" fill="white"/>
</svg>
