<svg width="21" height="20" viewBox="0 0 21 20" fill="none" xmlns="http://www.w3.org/2000/svg">
<path d="M1.51762 20H12.0325C12.8726 20 13.5501 19.3225 13.5501 18.4824V14.2276C13.5501 13.3875 12.8726 12.71 12.0325 12.71H7.58808C6.09756 12.71 4.87805 11.4905 4.87805 10C4.87805 8.50949 6.09756 7.28997 7.58808 7.28997H12.0325C12.8726 7.28997 13.5501 6.61247 13.5501 5.77236V1.51762C13.5501 0.677507 12.8726 0 12.0325 0H1.51762C0.677507 0 0 0.677507 0 1.51762V18.4824C0 19.3225 0.677507 20 1.51762 20Z" fill="white"/>
<path d="M15.4471 5.71818V8.64501H7.58805C6.82924 8.64501 6.23303 9.24121 6.23303 10C6.23303 10.7588 6.82924 11.355 7.58805 11.355H15.4471V14.2006C15.4471 14.8239 16.233 15.1491 16.6666 14.6884L20.7588 10.2981C21.0027 10.0271 21.0027 9.59352 20.7317 9.32251L16.6395 5.23037C16.2059 4.79677 15.4471 5.09487 15.4471 5.71818Z" fill="white"/>
</svg>
