<svg width="65" height="65" viewBox="0 0 65 65" fill="none" xmlns="http://www.w3.org/2000/svg">
    <path
        d="M1.03516 33.5295H25.2125L29.3738 38.0875L33.5352 39.3755L40.5699 33.5295H62.0931V42.9417L49.2893 58.1022L33.436 62.8586L19.3665 60.3805L10.9433 52.3554L1.03516 33.5295Z"
        fill="white" />
    <path
        d="M1.95984 32.5L24.4511 32.0767L27.5229 26.7588C27.5229 26.7588 34.0617 25.7684 34.1609 25.8005C34.2601 25.834 40.4036 32.2416 40.4036 32.2416L43.9377 32.3072L62.5652 31.416L55.6967 12.7871C55.6967 12.7871 45.7229 1.98637 33.3703 2.51579C21.0176 3.04521 1.531 12.9743 1.95984 32.5Z"
        fill="url(#paint0_radial_465_56456)" />
    <path
        d="M32.5 4.7564C39.9105 4.7564 46.8782 7.64237 52.1179 12.8821C57.3576 18.1218 60.2436 25.0895 60.2436 32.5C60.2436 39.9105 57.3576 46.8782 52.1179 52.1179C46.8782 57.3576 39.9105 60.2436 32.5 60.2436C25.0895 60.2436 18.1218 57.3576 12.8821 52.1179C7.64238 46.8782 4.7564 39.9105 4.7564 32.5C4.7564 25.0895 7.64238 18.1218 12.8821 12.8821C18.1232 7.64237 25.0895 4.7564 32.5 4.7564ZM32.5 0C14.5514 0 0 14.55 0 32.5C0 50.45 14.55 65 32.5 65C50.4486 65 65 50.45 65 32.5C65 14.55 50.4486 0 32.5 0Z"
        fill="black" />
    <path
        d="M53.8333 19.0759C53.7286 18.9097 53.621 18.7434 53.5106 18.58C52.7801 17.4821 51.9685 16.4428 51.0787 15.4761C50.9446 15.3309 50.8049 15.1912 50.668 15.0501C49.3703 13.7063 47.9245 12.5077 46.3544 11.481C46.1896 11.3735 46.0233 11.2673 45.8557 11.1639C43.8526 9.9207 41.6608 8.95545 39.3322 8.31568C39.1423 8.26399 38.9523 8.21091 38.7595 8.16202C36.822 7.68009 34.7965 7.42027 32.7096 7.42027C32.2486 7.42027 31.7904 7.43564 31.335 7.45939C31.1367 7.47056 30.9411 7.48872 30.7456 7.50408C27.3833 7.7653 24.2109 8.69144 21.3543 10.1526C21.1783 10.242 21.0009 10.3286 20.8277 10.4236C13.4172 14.4396 8.27941 22.0988 7.78491 30.9983C8.38138 22.4466 14.3629 15.3825 22.3642 13.1768C22.5598 13.1224 22.7568 13.0707 22.9551 13.0218C24.4679 12.6544 26.0464 12.4561 27.6724 12.4561C28.8863 12.4561 30.0723 12.5706 31.2261 12.7773C31.4286 12.8137 31.6312 12.8514 31.8309 12.8933C33.7153 13.2928 35.5034 13.9577 37.1503 14.8489C37.3305 14.9467 37.5079 15.0501 37.6853 15.1534C39.1031 15.979 40.412 16.9722 41.5798 18.1107C41.7251 18.2517 41.8662 18.3984 42.0073 18.5437C42.8161 19.3804 43.5536 20.2856 44.206 21.2523C44.3177 21.4185 44.4281 21.5875 44.5356 21.7565C44.9365 22.3907 45.3025 23.0473 45.6308 23.7261C45.7174 23.9049 45.7998 24.0865 45.8822 24.2681C46.9592 26.6792 47.5767 29.3402 47.6116 32.1424H57.6831C57.6357 27.3427 56.2276 22.8657 53.8333 19.0759Z"
        fill="black" />
    <path
        d="M23.3672 32.5C23.3672 31.6758 23.4859 30.881 23.6913 30.1225H2.90698V34.8789H23.6913C23.4859 34.1176 23.3672 33.3242 23.3672 32.5Z"
        fill="black" />
    <path
        d="M41.3088 30.1211C41.5142 30.881 41.6329 31.6744 41.6329 32.4986C41.6329 33.3228 41.5142 34.1176 41.3088 34.8761H62.0931V30.1197H41.3088V30.1211Z"
        fill="black" />
    <path
        d="M32.5 39.254C28.7759 39.254 25.7461 36.2241 25.7461 32.5C25.7461 28.7759 28.7759 25.746 32.5 25.746C36.2242 25.746 39.2554 28.7759 39.2554 32.5C39.2554 36.2241 36.2242 39.254 32.5 39.254Z"
        fill="white" />
    <path
        d="M32.5 28.1235C34.9139 28.1235 36.8765 30.0876 36.8765 32.5C36.8765 34.9124 34.9125 36.8765 32.5 36.8765C30.0876 36.8765 28.1236 34.9124 28.1236 32.5C28.1236 30.0876 30.0862 28.1235 32.5 28.1235ZM32.5 23.3671C27.4559 23.3671 23.3672 27.4558 23.3672 32.5C23.3672 37.5442 27.4559 41.6329 32.5 41.6329C37.5442 41.6329 41.6329 37.5442 41.6329 32.5C41.6329 27.4558 37.5442 23.3671 32.5 23.3671Z"
        fill="black" />
    <path
        d="M7.78337 30.9983C7.75683 31.3783 7.73728 31.7596 7.73169 32.1452C7.73728 31.7596 7.76242 31.3797 7.78337 30.9983Z"
        fill="black" />
    <path
        d="M54.2787 18.4515L35.4291 35.7771C33.4357 37.6084 30.2746 37.2061 28.8036 34.9334C27.3327 32.6606 28.2616 29.6112 30.7495 28.544L54.2787 18.4515Z"
        fill="white" stroke="#1D1D1B" stroke-width="2" stroke-miterlimit="10" />
    <defs>
        <radialGradient id="paint0_radial_465_56456" cx="0" cy="0" r="1"
            gradientUnits="userSpaceOnUse"
            gradientTransform="translate(31.9496 39.5733) scale(40.4577 40.4577)">
            <stop offset="0.176" stop-color="#B61A15" />
            <stop offset="0.7682" stop-color="#B61A15" />
            <stop offset="0.96" />
        </radialGradient>
    </defs>
</svg>