<svg width="25" height="55" viewBox="0 0 25 55" fill="none" xmlns="http://www.w3.org/2000/svg">
<path d="M5.92444 25.3984V0H1.8565C1.11522 0 0.506592 0.608252 0.506592 1.34907V18.5309C0.506592 19.9111 4.90485 24.4055 5.92444 25.3984Z" fill="#E5E4E2"/>
<path d="M20.0607 34.9512C15.4726 30.3659 8.03119 30.3659 3.44305 34.9512C-1.14768 39.5365 -1.14768 46.9732 3.44305 51.5611C8.03119 56.1464 15.4726 56.1464 20.0607 51.5611C24.6515 46.9732 24.6515 39.5365 20.0607 34.9512ZM11.7532 33.5475C17.1164 33.5475 21.4679 37.8937 21.4679 43.2561C21.4679 48.6186 17.1164 52.9648 11.7532 52.9648C6.38736 52.9648 2.03592 48.6186 2.03592 43.2561C2.03592 37.8937 6.38736 33.5475 11.7532 33.5475Z" fill="#E5E4E2"/>
<path d="M19.5822 24.8733C22.4484 22.3961 25 19.6954 25 18.5309V1.34907C25 0.608252 24.3914 0 23.6501 0H19.5822V24.8733Z" fill="#E5E4E2"/>
<path d="M14.1331 39.6221L11.7532 36.2273L9.37591 39.6169C9.29528 39.7338 9.17563 39.8248 9.02998 39.8716L5.06348 41.0829L7.56042 44.3945C7.56042 44.3945 7.69047 44.7584 7.69047 44.7948L7.61764 48.9408L11.5399 47.5917C11.6726 47.5449 11.8208 47.5423 11.9639 47.5917L15.8862 48.9408L15.8159 44.839C15.8029 44.6856 15.8446 44.5271 15.9434 44.3945L18.4403 41.0829L14.4738 39.8716C14.4764 39.8716 14.1513 39.6507 14.1331 39.6221Z" fill="#E5E4E2"/>
<path d="M17.1944 49.6686C17.3687 49.5205 17.5377 49.3645 17.7016 49.2008C19.8552 47.0485 20.5965 44.0202 19.928 41.2649L17.1138 45.0002L17.1944 49.6686Z" fill="#E5E4E2"/>
<path d="M7.33154 50.4122C10.0314 52.081 13.4725 52.081 16.1723 50.4122L11.7532 48.8916L7.33154 50.4122Z" fill="#E5E4E2"/>
<path d="M3.5757 41.2649C2.90725 44.0202 3.64853 47.0485 5.80214 49.2008C5.966 49.3645 6.13507 49.5205 6.30933 49.6686L6.38996 45.0002L3.5757 41.2649Z" fill="#E5E4E2"/>
<path d="M11.1211 34.8706C7.96613 35.1071 5.17788 37.1035 3.96582 40.0667L8.43951 38.6969L11.1211 34.8706Z" fill="#E5E4E2"/>
<path d="M17.7016 37.3088C16.219 35.8272 14.3203 35.0162 12.3826 34.8706L15.0642 38.6969L19.5379 40.0667C19.1295 39.0634 18.5157 38.1224 17.7016 37.3088Z" fill="#E5E4E2"/>
<path d="M7.22485 0V26.6227C9.25882 28.4761 11.1601 29.8927 11.9378 29.8927C13.4204 29.8927 17.1372 26.8956 18.2816 25.9625V0H7.22485Z" fill="#E5E4E2"/>
</svg>
