<svg width="23" height="24" viewBox="0 0 23 24" fill="none" xmlns="http://www.w3.org/2000/svg">
<path fill-rule="evenodd" clip-rule="evenodd" d="M9.34375 2.86551C5.62373 3.73704 2.875 6.81109 2.875 10.4724V15.7083C2.875 16.1907 2.44458 16.5818 1.91767 16.5818C0.858568 16.5818 0 17.3652 0 18.3273V19.6377C0 19.8779 0.213004 20.0727 0.480388 20.0727H22.5196C22.7849 20.0727 23 19.875 23 19.6377V18.3273C23 17.3633 22.1374 16.5818 21.0823 16.5818C20.5536 16.5818 20.125 16.1938 20.125 15.7083V10.4724C20.125 6.81253 17.3768 3.73733 13.6562 2.86554V1.96401C13.6562 0.876763 12.6909 0 11.5 0C10.3116 0 9.34375 0.879317 9.34375 1.96401V2.86551ZM8.14583 20.9455H14.8542C14.8542 22.6324 13.3525 24 11.5 24C9.64754 24 8.14583 22.6324 8.14583 20.9455Z" fill="#B61A15"/>
</svg>
