<svg width="24" height="24" viewBox="0 0 24 24" fill="none" xmlns="http://www.w3.org/2000/svg">
<path d="M4.33203 8.44496C4.12074 8.87795 3.96374 9.28831 3.84882 9.69506C3.73073 10.1172 3.65336 10.5416 3.60359 10.9867C3.56966 11.2994 3.31719 11.536 3.01587 11.5623C2.82222 11.593 1.32053 11.7677 1.29887 11.8582L1.66218 14.7701L1.67213 14.7869L1.70063 14.7923L3.37374 14.5869C3.5054 14.5715 3.63208 14.5955 3.74203 14.6507C3.90083 14.7249 4.01802 14.8584 4.07458 15.014C4.22931 15.4284 4.39535 15.8144 4.60032 16.1877C4.80618 16.5632 5.05548 16.9324 5.37082 17.3084C5.5699 17.545 5.5699 17.8839 5.38756 18.1196L4.39626 19.3996L6.65717 21.1569L7.65164 19.8752C7.84394 19.6268 8.18236 19.5567 8.45292 19.6906C8.90491 19.9136 9.32026 20.072 9.72469 20.1824C10.1337 20.2941 10.5558 20.367 11.0101 20.419C11.316 20.4534 11.5472 20.6964 11.5816 20.9891C11.6178 21.2357 11.7761 22.5749 11.8345 22.6966C11.9073 22.7165 14.5053 22.3794 14.7749 22.331L14.7935 22.3179C14.8179 22.2405 14.6256 20.805 14.6021 20.5981C14.5845 20.4411 14.6252 20.29 14.7062 20.1669L14.7315 20.1285C14.8098 20.0099 14.9215 19.9253 15.0464 19.8787C15.4649 19.7217 15.8595 19.5448 16.2355 19.3317C16.621 19.1127 17.0015 18.8508 17.3829 18.5295C17.6195 18.3296 17.9606 18.3309 18.1964 18.5142L19.5225 19.5439L21.2517 17.3206L21.2653 17.2745L19.9369 16.2411C19.7057 16.0524 19.6297 15.724 19.7659 15.4498C19.9858 15.0032 20.1328 14.6024 20.2346 14.2118C20.3382 13.8128 20.4025 13.3984 20.4545 12.9423C20.4889 12.636 20.7327 12.4043 21.0268 12.3708C23.5904 12.0713 22.7673 12.6649 22.3362 9.23452L22.324 9.21552C22.2543 9.19018 20.8133 9.38564 20.612 9.41007C20.4636 9.42772 20.3202 9.39333 20.2007 9.32049L20.1722 9.30375C20.0306 9.21869 19.9338 9.08793 19.889 8.94043C19.7397 8.54228 19.5705 8.16269 19.3642 7.7935C19.152 7.41571 18.8959 7.04108 18.5742 6.65651C18.3643 6.40449 18.3774 6.03982 18.5919 5.80364L19.594 4.51647L19.656 4.40834L17.4449 2.68856C17.4019 2.69761 17.3607 2.72295 17.3354 2.75462L16.2966 4.09159C16.1056 4.33772 15.7717 4.40786 15.5021 4.27846C15.1089 4.10698 14.6691 3.94591 14.2144 3.81787C13.8054 3.70294 13.381 3.61427 12.9643 3.56676C12.6463 3.53056 12.4083 3.26859 12.3897 2.95912L12.1785 1.32575C12.1156 1.22847 9.54527 1.623 9.23799 1.66146L9.21899 1.67141C9.18913 1.84515 9.39137 3.08842 9.42756 3.36351C9.46602 3.6671 9.2864 3.94897 9.01177 4.05167C8.60186 4.20505 8.21818 4.36749 7.84135 4.57018C7.47759 4.76699 7.11519 5.00905 6.73422 5.32848C6.48221 5.53931 6.11755 5.52619 5.88092 5.31083L4.59467 4.30958C4.39333 4.28967 3.01655 6.23564 2.78675 6.53204C3.1745 6.85282 3.83189 7.40526 4.23098 7.65908C4.44407 7.87218 4.47846 8.19613 4.33368 8.44452L4.33203 8.44496ZM2.60009 9.34441C2.696 9.00372 2.81591 8.66349 2.96566 8.3142L2.03181 7.58939C1.79202 7.40162 1.59656 7.15957 1.50471 6.88448C1.39522 6.55963 1.41965 6.21713 1.64271 5.89408L3.48503 3.52012C3.69406 3.25408 3.99357 3.08803 4.30938 3.03057L4.38901 3.01609C4.73061 2.97537 5.09301 3.06134 5.37942 3.28123L6.31236 4.00922C6.61866 3.783 6.91999 3.59478 7.22493 3.42919C7.50318 3.27897 7.78551 3.14867 8.07824 3.02787L7.92442 1.85109C7.88234 1.48958 7.98821 1.14075 8.1977 0.873354C8.40673 0.609133 8.71846 0.420003 9.08267 0.375213L11.9869 0.00917924C12.3371 -0.0319933 12.6741 0.0675464 12.9375 0.263453L12.961 0.281098C13.2198 0.482438 13.4053 0.78422 13.4573 1.13667L13.6152 2.35145C13.9356 2.408 14.2541 2.48265 14.5645 2.56997C14.9128 2.66815 15.2531 2.78217 15.5734 2.90613L16.3091 1.96144C16.5235 1.68816 16.8484 1.48864 17.1819 1.41896C17.5103 1.35064 17.8605 1.39769 18.1555 1.60219L20.5218 3.43861C20.8376 3.68383 20.9652 4.02543 20.9602 4.38014C20.9557 4.70816 20.82 5.04885 20.6187 5.30855L19.8956 6.23651C20.1246 6.54463 20.3214 6.85093 20.4947 7.16041C20.6603 7.45992 20.8042 7.75854 20.9336 8.06439L22.2153 7.91508C22.5514 7.89427 22.8682 8.00014 23.1156 8.19017C23.3631 8.38246 23.5455 8.66342 23.6075 8.99055C23.7459 9.97281 23.821 11.0206 23.9889 11.9866C24.0332 12.3477 23.9278 12.696 23.7192 12.9643C23.5256 13.2109 23.2419 13.3933 22.9093 13.4539L21.6768 13.6018C21.6293 13.9176 21.5705 14.2248 21.4891 14.537C21.4031 14.8678 21.2945 15.198 21.1506 15.5396L22.1374 16.3124C22.4026 16.5436 22.5387 16.8572 22.5586 17.182L22.56 17.1988C22.5754 17.4996 22.4862 17.8141 22.3071 18.072C21.8451 18.795 21.0162 19.7384 20.4648 20.4478C20.2204 20.7564 19.9232 20.8934 19.5961 20.8984C19.3065 20.9016 19.0301 20.7903 18.7758 20.6048L17.8021 19.8492C17.4927 20.0813 17.1846 20.2826 16.8742 20.4582C16.5647 20.6337 16.2566 20.7853 15.9458 20.9179L16.0896 22.139C16.1326 22.4974 16.0236 22.8471 15.8137 23.114C15.6046 23.3828 15.2911 23.5751 14.9318 23.6199C13.9695 23.7416 12.9669 23.8407 12.0131 23.9909C11.6548 24.033 11.3101 23.9271 11.0431 23.7212C10.7748 23.5145 10.5834 23.2027 10.5391 22.8408L10.3658 21.6405C10.0364 21.5884 9.71156 21.521 9.38353 21.4305C9.04284 21.3378 8.70396 21.2215 8.3592 21.0749L7.6389 22.0029C7.40996 22.297 7.12628 22.4616 6.81003 22.4969C6.52047 22.5291 6.22955 22.4485 5.95717 22.254C5.28213 21.7766 4.18585 20.9533 3.5846 20.4121C3.3163 20.2013 3.1403 19.9294 3.08148 19.6276C3.01949 19.2996 3.09052 18.9634 3.32761 18.6593L4.05287 17.7269C3.82302 17.4183 3.62939 17.1147 3.46243 16.8107C3.30362 16.5202 3.16653 16.2315 3.04391 15.9352L1.85716 16.0809C1.49701 16.1261 1.14909 16.0198 0.880336 15.8121C0.630593 15.6198 0.450517 15.3379 0.387172 15.0086C0.231526 14.1557 0.0763441 12.8758 0.00938531 12.0102C-0.0335964 11.6523 0.0736341 11.3094 0.278137 11.0442C0.472689 10.7931 0.759079 10.6112 1.09344 10.5533L2.38062 10.3524C2.43446 10.0118 2.50639 9.6783 2.59959 9.3444L2.60009 9.34441Z" fill="white"/>
<path fill-rule="evenodd" clip-rule="evenodd" d="M13.9629 7.53804C12.6879 6.94579 11.1971 7.00234 9.93028 7.57649C9.58552 7.73575 9.25705 7.9389 8.95436 8.1796C8.66163 8.41306 8.38835 8.68904 8.14674 9.00078C7.96078 9.24057 7.80062 9.49123 7.66625 9.74912L7.64634 9.78531C7.50609 10.0613 7.39342 10.3522 7.30927 10.6508C7.11065 11.3802 7.08711 11.9326 7.17443 12.6842L7.23189 13.0113L7.3156 13.3361C7.43595 13.7144 7.5486 13.989 7.73321 14.3415C7.89111 14.6274 8.07888 14.8998 8.29333 15.1495C8.50191 15.3939 8.73989 15.6214 9.00592 15.8268C9.54931 16.2476 10.1551 16.5385 10.7818 16.6987L10.8116 16.7073C11.4704 16.872 12.154 16.8942 12.8127 16.781C13.1788 16.7222 13.4946 16.6118 13.843 16.486C14.0217 16.4023 14.1922 16.3259 14.3637 16.2318C14.6447 16.0757 14.9116 15.8893 15.1573 15.6784C15.3849 15.483 15.5993 15.2608 15.7948 15.0152L15.8314 14.9722C16.0703 14.665 16.2681 14.3333 16.4237 13.9895C16.5825 13.6384 16.6988 13.2692 16.7698 12.8968C16.949 11.825 16.8372 10.7993 16.3468 9.81932C16.1853 9.49311 15.9857 9.18364 15.7545 8.89996C15.5324 8.62803 15.2713 8.37196 14.9741 8.14438C14.8071 8.01318 14.6379 7.8978 14.47 7.79826C14.3112 7.70551 14.1407 7.61819 13.9629 7.53856L13.9629 7.53804ZM14.1828 9.16909C14.3927 9.33061 14.5836 9.51748 14.7497 9.72243C14.9207 9.93101 15.0655 10.1545 15.1795 10.3853C15.5405 11.1399 15.6346 11.8276 15.4966 12.652C15.4446 12.9239 15.3586 13.1958 15.2406 13.4564C15.1288 13.7039 14.9831 13.946 14.8053 14.1749L14.7786 14.2124C14.6374 14.3884 14.4814 14.5504 14.3153 14.6929C14.133 14.849 13.9393 14.9857 13.7394 15.0965C13.609 15.1676 13.486 15.2227 13.3502 15.2843C13.0693 15.3892 12.8883 15.4444 12.5901 15.5019C12.1074 15.5847 11.6074 15.568 11.1255 15.4476L11.1002 15.4413C10.6414 15.325 10.1962 15.111 9.79715 14.8006C9.60486 14.6527 9.43112 14.4857 9.27864 14.3075C9.11938 14.122 8.98049 13.9206 8.86557 13.712C8.68323 13.4035 8.58822 13.08 8.50225 12.737L8.45791 12.4918C8.39683 11.9502 8.40679 11.5317 8.55926 11.0001C8.61808 10.7901 8.70088 10.5793 8.80539 10.3734L8.82077 10.3404C8.91941 10.1504 9.0375 9.96669 9.17233 9.79205C9.34697 9.56764 9.54605 9.36675 9.76232 9.19437C9.9813 9.01973 10.2206 8.87177 10.4695 8.75595C11.5047 8.28948 12.3978 8.31707 13.4411 8.72156C13.5615 8.77585 13.6845 8.8401 13.8103 8.91385C13.9415 8.99213 14.0664 9.07628 14.1836 9.16903L14.1828 9.16909Z" fill="white"/>
</svg>
