<svg width="21" height="25" viewBox="0 0 21 25" fill="none" xmlns="http://www.w3.org/2000/svg">
<path d="M20.3387 4.20179C20.3323 4.07312 20.2757 3.9521 20.181 3.86476C20.0863 3.77742 19.9611 3.73075 19.8324 3.73477C17.8316 3.76918 13.8742 3.43489 10.5214 0.618017C10.4324 0.541853 10.3191 0.5 10.2019 0.5C10.0847 0.5 9.97141 0.541853 9.88237 0.618017C6.52965 3.43489 2.57226 3.76918 0.571442 3.73477C0.442682 3.73075 0.317487 3.77742 0.222793 3.86476C0.128098 3.9521 0.0714708 4.07312 0.0650925 4.20179C-0.126632 9.15221 -0.0184798 15.43 2.13473 18.3796C4.38627 21.4767 9.10072 24.1067 10.2019 24.5C11.3031 24.1018 16.0175 21.4717 18.2691 18.3796C20.4223 15.43 20.5304 9.15221 20.3387 4.20179ZM14.5378 10.0371L9.53333 15.5332C9.46458 15.607 9.38176 15.6664 9.28974 15.7078C9.19772 15.7491 9.09835 15.7717 8.99749 15.7741H8.98765C8.88925 15.7738 8.79191 15.7537 8.70151 15.7148C8.61111 15.676 8.52951 15.6192 8.46164 15.5479L5.88073 12.913C5.74383 12.7728 5.66822 12.584 5.67052 12.3881C5.67283 12.1922 5.75286 12.0052 5.89302 11.8683C6.03318 11.7314 6.22198 11.6558 6.4179 11.6581C6.61381 11.6604 6.80078 11.7404 6.93768 11.8806L8.96799 13.9601L13.4465 9.04406C13.5787 8.90147 13.7619 8.81684 13.9562 8.8086C14.1505 8.80035 14.3402 8.86915 14.484 9.00003C14.6278 9.13091 14.7142 9.31328 14.7243 9.50749C14.7343 9.70169 14.6673 9.89203 14.5378 10.0371Z" fill="white"/>
</svg>
