<svg width="37" height="28" viewBox="0 0 37 28" fill="none" xmlns="http://www.w3.org/2000/svg">
<path d="M30.4689 15.2448C30.0461 15.2448 29.6325 15.2889 29.234 15.3694L28.3501 13.2715C29.0283 13.0969 29.7349 12.9948 30.4689 12.9948H33.5155L35.0392 9.9946L30.4689 9.24445V7.7446H33.2806L27.4219 0.244904H25.8986L27.4219 6.24475H21.3283L16.758 9.2449H12.1877L0 6.9949V9.33715L10.6639 12.9948L13.7109 19.7448L12.0195 19.896C11.3961 17.2342 8.98615 15.2448 6.09405 15.2448C2.72711 15.2448 0 17.9317 0 21.2451C0 24.5584 2.72711 27.2449 6.0936 27.2449C8.92902 27.2449 11.2919 25.3275 11.9715 22.7449H22.0892V21.2451C22.0892 18.2098 23.7583 15.5643 26.2386 14.1315L27.1239 16.2366C25.4699 17.3089 24.3744 19.149 24.3744 21.2451C24.3748 24.5584 27.102 27.2449 30.4689 27.2449C33.834 27.2449 36.5625 24.5584 36.5625 21.2451C36.5625 17.9317 33.834 15.2448 30.4689 15.2448ZM8.71833 22.7449C8.19 23.6382 7.21881 24.2448 6.09405 24.2448C4.40989 24.2448 3.04703 22.902 3.04703 21.2451C3.04703 19.5882 4.40944 18.2449 6.0936 18.2449C7.39065 18.2449 8.49164 19.0477 8.9313 20.1727L5.33218 20.4949V22.7449H8.71833ZM30.4689 24.2448C28.7843 24.2448 27.4219 22.902 27.4219 21.2451C27.4219 20.4085 27.7715 19.6525 28.3323 19.1076L29.7038 22.3683L31.8149 21.507L30.4433 18.2481C30.4524 18.2481 30.4598 18.2449 30.4689 18.2449C32.1517 18.2449 33.5155 19.5882 33.5155 21.2451C33.5155 22.902 32.1517 24.2448 30.4689 24.2448Z" fill="#B61A15"/>
</svg>
