<svg width="37" height="27" viewBox="0 0 37 27" fill="none" xmlns="http://www.w3.org/2000/svg">
<path d="M30.4689 14.9998C30.0461 14.9998 29.6325 15.044 29.234 15.1245L28.3501 13.0266C29.0283 12.852 29.7349 12.7498 30.4689 12.7498H33.5155L35.0392 9.7497L30.4689 8.99955V7.4997H33.2806L27.4219 0H25.8986L27.4219 5.99985H21.3283L16.758 9H12.1877L0 6.75V9.09225L10.6639 12.7498L13.7109 19.4998L12.0195 19.651C11.3961 16.9893 8.98615 14.9998 6.09405 14.9998C2.72711 14.9998 0 17.6868 0 21.0001C0 24.3135 2.72711 27 6.0936 27C8.92902 27 11.2919 25.0826 11.9715 22.5H22.0892V21.0001C22.0892 17.9649 23.7583 15.3194 26.2386 13.8865L27.1239 15.9916C25.4699 17.064 24.3744 18.904 24.3744 21.0001C24.3748 24.3135 27.102 27 30.4689 27C33.834 27 36.5625 24.3135 36.5625 21.0001C36.5625 17.6868 33.834 14.9998 30.4689 14.9998ZM8.71833 22.5C8.19 23.3932 7.21881 23.9998 6.09405 23.9998C4.40989 23.9998 3.04703 22.657 3.04703 21.0001C3.04703 19.3433 4.40944 18 6.0936 18C7.39065 18 8.49164 18.8028 8.9313 19.9278L5.33218 20.25V22.5H8.71833ZM30.4689 23.9998C28.7843 23.9998 27.4219 22.657 27.4219 21.0001C27.4219 20.1636 27.7715 19.4076 28.3323 18.8626L29.7038 22.1234L31.8149 21.2621L30.4433 18.0031C30.4524 18.0031 30.4598 18 30.4689 18C32.1517 18 33.5155 19.3433 33.5155 21.0001C33.5155 22.657 32.1517 23.9998 30.4689 23.9998Z" fill="white" fill-opacity="0.4"/>
</svg>
