<svg width="28" height="20" viewBox="0 0 28 20" fill="none" xmlns="http://www.w3.org/2000/svg">
<path d="M22.5696 11.111C22.2564 11.111 21.95 11.1437 21.6548 11.2033L21.0001 9.64933C21.5025 9.52 22.0259 9.44433 22.5696 9.44433H24.8263L25.955 7.222L22.5696 6.66633V5.55533H24.6523L20.3125 0H19.1841L20.3125 4.44433H15.7987L12.4133 6.66667H9.02789L0 5V6.735L7.89919 9.44433L10.1563 14.4443L8.90331 14.5563C8.44154 12.5847 6.65641 11.111 4.51411 11.111C2.02008 11.111 0 13.1013 0 15.5557C0 18.01 2.02008 20 4.51378 20C6.61409 20 8.36435 18.5797 8.86776 16.6667H16.3624V15.5557C16.3624 13.3073 17.5988 11.3477 19.436 10.2863L20.0918 11.8457C18.8666 12.64 18.0551 14.003 18.0551 15.5557C18.0554 18.01 20.0755 20 22.5696 20C25.0622 20 27.0833 18.01 27.0833 15.5557C27.0833 13.1013 25.0622 11.111 22.5696 11.111ZM6.45802 16.6667C6.06667 17.3283 5.34727 17.7777 4.51411 17.7777C3.26659 17.7777 2.25706 16.783 2.25706 15.5557C2.25706 14.3283 3.26625 13.3333 4.51378 13.3333C5.47456 13.3333 6.2901 13.928 6.61578 14.7613L3.94977 15V16.6667H6.45802ZM22.5696 17.7777C21.3217 17.7777 20.3125 16.783 20.3125 15.5557C20.3125 14.936 20.5715 14.376 20.9869 13.9723L22.0028 16.3877L23.5666 15.7497L22.5506 13.3357C22.5574 13.3357 22.5628 13.3333 22.5696 13.3333C23.8161 13.3333 24.8263 14.3283 24.8263 15.5557C24.8263 16.783 23.8161 17.7777 22.5696 17.7777Z" fill="white"/>
</svg>
